<?xml version="1.0" standalone="no"?>
<!DOCTYPE svg PUBLIC "-//W3C//DTD SVG 20010904//EN"
 "http://www.w3.org/TR/2001/REC-SVG-20010904/DTD/svg10.dtd">
<svg version="1.0" xmlns="http://www.w3.org/2000/svg"
 width="512.000000pt" height="512.000000pt" viewBox="0 0 512.000000 512.000000"
 preserveAspectRatio="xMidYMid meet">

<g transform="translate(0.000000,512.000000) scale(0.100000,-0.100000)"
fill="#000000" stroke="none">
<path d="M915 4471 c-98 -26 -207 -118 -247 -208 -32 -74 -35 -176 -8 -259
l22 -69 687 -687 686 -688 -686 -687 -687 -688 -22 -69 c-30 -91 -25 -187 13
-267 33 -68 117 -151 184 -180 96 -42 235 -34 323 19 14 8 330 319 702 691
l678 676 687 -686 688 -687 69 -22 c277 -90 542 163 460 440 -9 29 -23 65 -32
79 -8 14 -319 331 -691 703 l-676 678 686 687 687 688 22 69 c27 83 24 185 -8
259 -29 66 -105 143 -177 180 -54 28 -69 31 -150 31 -161 1 -108 45 -882 -728
l-683 -681 -683 681 c-608 607 -688 683 -737 704 -59 25 -172 35 -225 21z"/>
</g>
</svg>
