<svg xmlns="http://www.w3.org/2000/svg" xmlns:xlink="http://www.w3.org/1999/xlink" version="1.1" width="40" height="40" viewBox="0 0 40 40" xml:space="preserve">
<desc>Created with Fabric.js 3.5.0</desc>
<defs>
</defs>
<rect x="0" y="0" width="100%" height="100%" fill="rgba(255,255,255,0)"/>
<g transform="matrix(0.0504 0 0 0.0504 19.9814 19.9814)" id="575489">
<g style="" vector-effect="non-scaling-stroke">
		<g transform="matrix(33.3333 0 0 33.3333 0.0023 0.0013)">
<path style="stroke: rgb(28,28,28); stroke-width: 1.699; stroke-dasharray: none; stroke-linecap: round; stroke-dashoffset: 0; stroke-linejoin: miter; stroke-miterlimit: 4; is-custom-font: none; font-file-url: none; fill: none; fill-rule: nonzero; opacity: 1;" transform=" translate(-12.0001, -12.0001)" d="M 12.0001 2.84955 C 17.0538 2.84955 21.1506 6.94637 21.1506 12.0001 C 21.1506 17.0537 17.0538 21.1506 12.0001 21.1506 C 6.94643 21.1506 2.84961 17.0537 2.84961 12.0001 C 2.84961 6.94637 6.94643 2.84955 12.0001 2.84955 Z" stroke-linecap="round"/>
</g>
		<g transform="matrix(33.3333 0 0 33.3333 -0.0002 -15.3909)">
<path style="stroke: rgb(223,20,99); stroke-width: 1.7; stroke-dasharray: none; stroke-linecap: round; stroke-dashoffset: 0; stroke-linejoin: miter; stroke-miterlimit: 4; is-custom-font: none; font-file-url: none; fill: none; fill-rule: nonzero; opacity: 1;" transform=" translate(-12, -11.5383)" d="M 7 12.6842 H 8.67217 C 8.75916 12.6842 8.83616 12.628 8.86266 12.5451 L 10.3761 7.81366 C 10.4405 7.61227 10.7327 7.63557 10.7643 7.84463 L 11.8836 15.2319 C 11.9146 15.4363 12.1974 15.4651 12.269 15.2712 L 14.0716 10.3871 C 14.1375 10.2086 14.3918 10.2142 14.4497 10.3954 L 15.1373 12.5451 C 15.1638 12.628 15.2408 12.6842 15.3278 12.6842 H 17" stroke-linecap="round"/>
</g>
</g>
</g>
</svg>